# xmcd
# Track frame offsets:
# 150
# 9961
# 23420
# 39108
# 55542
# 69447
# 84884
# 96239
# 106299
# 120671
# 135154
# 151455
#
# Disc length: 2246 seconds
# Revision: 0
# Processed by: cddbd v1.5.2PL0 Copyright (c) Steve Scherf et al.
# Submitted via: VisiTrax 2.11.3.279 - For more info visit www.synapsa.com
#
DISCID=7808c40c
DTITLE=Allen. Don - Only Time Will Tell
DYEAR=2013
DGENRE=Country
TTITLE0=All The Good Ones
TTITLE1=Close The Door
TTITLE2=Gettin' Old
TTITLE3=Going Out Of My Mind
TTITLE4=I Ain't Nobody /Old Guitar
TTITLE5=In Want To
TTITLE6=It's Closing Time
TTITLE7=I'm Looking Forward To Not Looking Back
TTITLE8=No One Loves Here Anymore
TTITLE9=Only Time Will Tell
TTITLE10=When You Send An Angel An Letter
TTITLE11=You Make My Life Complete
EXTD=
EXTT0=
EXTT1=
EXTT2=
EXTT3=
EXTT4=
EXTT5=
EXTT6=
EXTT7=
EXTT8=
EXTT9=
EXTT10=
EXTT11=
PLAYORDER=
